<svg xmlns="http://www.w3.org/2000/svg" viewBox="0 0 200 200" height="200" width="200">
  <defs>
    <!-- Filter thô ráp từ file gốc -->
    <filter id="roughen">
      <feTurbulence result="noise" numOctaves="3" baseFrequency="0.8"></feTurbulence>
      <feDisplacementMap scale="0.8" in2="noise" in="SourceGraphic"></feDisplacementMap>
    </filter>
  </defs>

  <!-- Đĩa nhạc chính - giữ nguyên từ file gốc -->
  <circle filter="url(#roughen)" stroke-width="2" stroke="black" fill="#8EC5FF" r="85" cy="100" cx="100"></circle>

  <!-- Các vòng tròn đồng tâm - giữ nguyên -->
  <circle opacity="0.8" stroke-width="1" stroke="#2E5984" fill="none" r="78" cy="100" cx="100"></circle>
  <circle opacity="0.7" stroke-width="1" stroke="#2E5984" fill="none" r="70" cy="100" cx="100"></circle>
  <circle opacity="0.6" stroke-width="1" stroke="#2E5984" fill="none" r="62" cy="100" cx="100"></circle>
  <circle opacity="0.5" stroke-width="1" stroke="#2E5984" fill="none" r="54" cy="100" cx="100"></circle>
  <circle opacity="0.4" stroke-width="1" stroke="#2E5984" fill="none" r="46" cy="100" cx="100"></circle>

  <!-- Vòng tròn viền trong - giữ nguyên -->
  <circle stroke-width="2" stroke="black" fill="none" r="37" cy="100" cx="100"></circle>

  <!-- Tâm đĩa - giữ nguyên -->
  <circle stroke-width="2" stroke="#8EC5FF" fill="#8EC5FF" r="35" cy="100" cx="100"></circle>

  <!-- EQUALIZER ĐEN HOÀN TOÀN -->
  <g transform="translate(100,100)">
    <!-- Equalizer với 11 thanh -->
    <g stroke="none">
      <!-- Thanh trái -->
      <rect rx="1.5" height="10" width="3" y="-5" x="-22" fill="#000000"/>
      <rect rx="1.5" height="14" width="3" y="-7" x="-18" fill="#000000"/>
      <rect rx="1.5" height="18" width="3" y="-9" x="-14" fill="#000000"/>
      <rect rx="1.5" height="22" width="3" y="-11" x="-10" fill="#000000"/>
      <rect rx="1.5" height="26" width="3" y="-13" x="-6" fill="#000000"/>

      <!-- Thanh giữa - cao nhất -->
      <rect rx="1.5" height="30" width="3" y="-15" x="-1.5" fill="#000000"/>

      <!-- Thanh phải -->
      <rect rx="1.5" height="26" width="3" y="-13" x="3" fill="#000000"/>
      <rect rx="1.5" height="22" width="3" y="-11" x="7" fill="#000000"/>
      <rect rx="1.5" height="18" width="3" y="-9" x="11" fill="#000000"/>
      <rect rx="1.5" height="14" width="3" y="-7" x="15" fill="#000000"/>
      <rect rx="1.5" height="10" width="3" y="-5" x="19" fill="#000000"/>
    </g>
  </g>
</svg>
